<svg width="145" height="145" viewBox="0 0 145 145" fill="none" xmlns="http://www.w3.org/2000/svg">
<circle cx="72.5" cy="72.5" r="71.5" stroke="#ff9900" stroke-width="2"/>
<path d="M95.6875 60.2853H85.2068C85.9587 59.768 86.6046 59.254 87.0551 58.7933C89.725 56.0865 89.725 51.6807 87.0551 48.9738C84.4614 46.3437 79.9366 46.3404 77.3396 48.9738C75.9053 50.4257 72.0926 56.3368 72.6193 60.2853H72.3808C72.9041 56.3368 69.0947 50.4257 67.6604 48.9738C65.0634 46.3404 60.5386 46.3437 57.9449 48.9738C55.275 51.6807 55.275 56.0865 57.9416 58.7933C58.3954 59.254 59.0413 59.768 59.7933 60.2853H49.3125C47.4873 60.2853 46 61.7839 46 63.623V71.9672C46 72.8885 46.742 73.6361 47.6562 73.6361H49.3125V93.6623C49.3125 95.5014 50.7998 97 52.625 97H92.375C94.2002 97 95.6875 95.5014 95.6875 93.6623V73.6361H97.3438C98.258 73.6361 99 72.8885 99 71.9672V63.623C99 61.7839 97.5127 60.2853 95.6875 60.2853ZM60.2934 51.3269C60.9659 50.646 61.8569 50.2722 62.8043 50.2722C63.7484 50.2722 64.6394 50.646 65.3119 51.3269C67.5445 53.5899 69.7639 59.3708 68.9921 60.1752C68.9921 60.1752 68.8529 60.2853 68.3792 60.2853C66.0903 60.2853 61.7211 57.8888 60.2934 56.4403C58.9055 55.0318 58.9055 52.7354 60.2934 51.3269ZM70.8438 93.6623H52.625V73.6361H70.8438V93.6623ZM70.8438 70.2984H49.3125V63.623H70.8438V70.2984ZM79.6881 51.3269C81.033 49.9685 83.365 49.9718 84.7066 51.3269C86.0945 52.7354 86.0945 55.0318 84.7066 56.4403C83.2789 57.8888 78.9097 60.2853 76.6208 60.2853C76.1471 60.2853 76.0079 60.1785 76.0046 60.1752C75.2361 59.3708 77.4555 53.5899 79.6881 51.3269ZM92.375 93.6623H74.1562V73.6361H92.375V93.6623ZM95.6875 70.2984H74.1562V63.623H95.6875V70.2984Z" fill="#35383B"/>
</svg>
