<svg width="145" height="145" viewBox="0 0 145 145" fill="none" xmlns="http://www.w3.org/2000/svg">
<circle cx="72.5" cy="72.5" r="71.5" stroke="#ff9900" stroke-width="2"/>
<path d="M60.856 68.8618H80.2087C81.2857 68.8618 82.1591 67.9852 82.1591 66.9041C82.1591 65.8224 81.2857 64.9463 80.2087 64.9463H60.856C59.779 64.9463 58.9056 65.8224 58.9056 66.9041C58.9056 67.9852 59.779 68.8618 60.856 68.8618Z" fill="#35383B"/>
<path d="M60.856 74.9214H80.2087C81.2857 74.9214 82.1591 74.0453 82.1591 72.9637C82.1591 71.8826 81.2857 71.0059 80.2087 71.0059H60.856C59.779 71.0059 58.9056 71.8826 58.9056 72.9637C58.9056 74.0453 59.779 74.9214 60.856 74.9214Z" fill="#35383B"/>
<path d="M76.0055 79.0238C76.0055 77.9427 75.1321 77.066 74.0551 77.066H60.856C59.779 77.066 58.9056 77.9427 58.9056 79.0238C58.9056 80.1054 59.779 80.982 60.856 80.982H74.0546C75.1321 80.982 76.0055 80.1054 76.0055 79.0238Z" fill="#35383B"/>
<path d="M93 90.5291C93 88.4238 92.2746 86.4872 91.0647 84.9519V44.9578C91.0647 43.8767 90.1913 43 89.1143 43H63.2729C62.7557 43 62.2596 43.2065 61.8939 43.5735L50.5714 54.9389C50.2057 55.306 50 55.804 50 56.3232V93.1576C50 94.2387 50.8734 95.1154 51.9504 95.1154H76.311C76.5718 95.556 76.8688 95.9719 77.1984 96.3596V107.042C77.1984 107.721 77.548 108.351 78.1229 108.707C78.4364 108.902 78.7921 109 79.1487 109C79.4467 109 79.7457 108.932 80.0206 108.794L84.0277 106.783L88.0353 108.794C88.6398 109.097 89.3581 109.064 89.933 108.707C90.5079 108.351 90.8575 107.721 90.8575 107.042V96.3596C92.1924 94.7871 93 92.7513 93 90.5291ZM84.9 102.843C84.6256 102.705 84.3267 102.636 84.0282 102.636C83.7292 102.636 83.4302 102.705 83.1558 102.843L81.0991 103.875V99.0395C82.0176 99.3587 83.0028 99.535 84.0282 99.535C85.0535 99.535 86.0383 99.3587 86.9568 99.0395V103.875L84.9 102.843ZM78.9566 90.5291C78.9566 87.7224 81.2315 85.4389 84.0282 85.4389C86.8243 85.4389 89.0993 87.7224 89.0993 90.5291C89.0993 93.3359 86.8243 95.6194 84.0282 95.6194C81.2315 95.6194 78.9566 93.3359 78.9566 90.5291ZM61.3225 49.6845V54.3649H56.6598L61.3225 49.6845ZM53.9007 91.1999V58.2804H63.2729C64.3499 58.2804 65.2232 57.4038 65.2232 56.3227V46.9155H87.1639V82.0918C86.1872 81.7247 85.1308 81.5228 84.0282 81.5228C79.0805 81.5228 75.0559 85.5632 75.0559 90.5291C75.0559 90.7552 75.0669 90.9783 75.0835 91.1999H53.9007Z" fill="#35383B"/>
</svg>
