<svg width="145" height="145" viewBox="0 0 145 145" fill="none" xmlns="http://www.w3.org/2000/svg">
<circle cx="72.5" cy="72.5" r="71.5" stroke="#ff9900" stroke-width="2"/>
<path d="M61.1552 39V39.0412C52.3298 39.4412 45.5581 43.1433 45.0517 47.8897H45V93.9238C45 94.0434 45.0155 94.159 45.0413 94.2702C45.4684 98.963 53.5436 103 62.7425 103C69.4615 103 75.5756 100.843 78.5611 97.8536H102V39H61.1552ZM98.8256 42.167V94.6866H80.399C80.4237 94.5496 80.43 94.4104 80.4425 94.2702C80.4684 94.159 80.4838 94.0434 80.4838 93.9238V47.8895H80.4321C80.1946 45.6793 78.6022 43.6968 76.0693 42.167H98.8256ZM72.8513 97.8536C70.3503 98.9734 66.9055 99.833 62.7413 99.833C53.9004 99.833 48.2481 95.9772 48.1784 93.9236H48.1721V53.9113C51.0712 56.1325 55.7255 57.6283 61.155 57.8742C61.6786 57.8975 62.2052 57.9155 62.7411 57.9155C63.2771 57.9155 63.8037 57.8975 64.3273 57.8742C69.757 57.6283 74.4111 56.1325 77.3102 53.9113V93.9236H77.3041C77.2959 94.1588 77.2164 94.4154 77.0676 94.6876C76.795 95.1824 76.2911 95.7258 75.5848 96.2711C74.8765 96.8165 73.9554 97.3598 72.8513 97.8536ZM61.1552 42.2051C61.6735 42.1809 62.2024 42.167 62.7413 42.167C63.2802 42.167 63.8091 42.1809 64.3275 42.2051C71.5339 42.5566 76.5896 45.2644 77.2393 47.8887C77.2845 48.079 77.3104 48.269 77.3104 48.4567C77.3104 48.7923 77.2238 49.1335 77.0762 49.4721C76.8428 50.0097 76.4257 50.5438 75.8525 51.0556C73.784 52.903 69.6487 54.4493 64.3265 54.7092C63.8082 54.735 63.2794 54.7473 62.7404 54.7473C62.2009 54.7473 61.6722 54.7334 61.1542 54.7092C55.833 54.4493 51.6967 52.903 49.6282 51.0556C49.055 50.5438 48.6385 50.0108 48.4045 49.4721C48.2565 49.1325 48.1701 48.7921 48.1701 48.4567C48.1701 48.269 48.1944 48.0788 48.2418 47.8887C48.8931 45.2644 53.9488 42.5566 61.1552 42.2051Z" fill="#35383B"/>
<path d="M56.9656 51.0567C58.1078 51.6246 59.6215 51.9411 61.1552 52.067C61.687 52.1104 62.2199 52.1347 62.7413 52.1347C63.2628 52.1347 63.7956 52.1114 64.3275 52.067C65.8609 51.9411 67.3748 51.6246 68.5171 51.0567C69.3152 50.6587 69.9266 50.1371 70.2373 49.4732C70.3815 49.1649 70.4661 48.8295 70.4661 48.4578C70.4661 48.2584 70.4373 48.0702 70.3938 47.8897C69.9364 45.9698 67.1647 45.0805 64.3275 44.8474C63.7956 44.804 63.2628 44.7798 62.7413 44.7798C62.2199 44.7798 61.687 44.8031 61.1552 44.8474C58.3179 45.0803 55.5463 45.9696 55.0889 47.8897C55.0454 48.0711 55.0166 48.2584 55.0166 48.4578C55.0166 48.8295 55.1012 49.1651 55.2453 49.4732C55.5561 50.1371 56.1674 50.6587 56.9656 51.0567ZM64.3275 48.882C63.8473 48.9309 63.3325 48.9665 62.7413 48.9665C62.1502 48.9665 61.6353 48.9309 61.1552 48.882C60.2237 48.7882 59.4813 48.6267 58.9675 48.4578C59.4801 48.2877 60.2237 48.1265 61.1552 48.0326C61.6353 47.9838 62.1502 47.948 62.7413 47.948C63.3325 47.948 63.8473 47.9836 64.3275 48.0326C65.259 48.1265 66.0025 48.2877 66.5152 48.4578C66.0014 48.6279 65.259 48.788 64.3275 48.882Z" fill="#35383B"/>
</svg>
