<svg width="145" height="145" viewBox="0 0 145 145" fill="none" xmlns="http://www.w3.org/2000/svg">
<circle cx="72.5" cy="72.5" r="71.5" stroke="#ff9900" stroke-width="2"/>
<path d="M114.95 86.9483L107.21 56.2431C107.025 55.512 106.37 55 105.619 55H40.3807C39.6297 55 38.9746 55.512 38.7903 56.2431L31.0502 86.9483C30.926 87.4409 31.0352 87.9636 31.346 88.3646C31.6567 88.7656 32.1346 89 32.6406 89H113.359C113.866 89 114.343 88.7654 114.654 88.3646C114.965 87.9636 115.074 87.4409 114.95 86.9483ZM34.7483 85.7052L41.658 58.2948H104.342L111.252 85.7052H34.7483Z" fill="#35383B"/>
<path d="M90.4131 80.104H41.9922C41.086 80.104 40.3515 80.8417 40.3515 81.7514C40.3515 82.6611 41.086 83.3988 41.9922 83.3988H90.4131C91.319 83.3988 92.0537 82.6611 92.0537 81.7514C92.0537 80.8417 91.319 80.104 90.4131 80.104Z" fill="#35383B"/>
<path d="M96.1369 80.104C95.231 80.104 94.4963 80.8417 94.4963 81.7514C94.4963 82.6611 95.231 83.3988 96.1369 83.3988H104.336C105.242 83.3988 105.977 82.6611 105.977 81.7514C105.977 80.8417 105.242 80.104 104.336 80.104H96.1369Z" fill="#35383B"/>
<path d="M58.6155 77.9564C58.6063 77.9526 58.5969 77.949 58.5874 77.9452C58.5964 77.9488 58.606 77.9526 58.6155 77.9564Z" fill="#35383B"/>
<path d="M58.5507 77.9304C58.5356 77.9243 58.521 77.9183 58.5069 77.9127C58.5202 77.918 58.5346 77.9239 58.5507 77.9304Z" fill="#35383B"/>
<path d="M58.5876 77.9452C58.5746 77.9399 58.5622 77.935 58.5508 77.9304C58.5628 77.9353 58.5753 77.9403 58.5876 77.9452Z" fill="#35383B"/>
<path d="M58.7349 78.0045C58.7241 78 58.7147 77.9964 58.7046 77.9923C58.7584 78.0139 58.7838 78.0241 58.7349 78.0045Z" fill="#35383B"/>
<path d="M58.6998 77.9903C58.6691 77.978 58.6407 77.9666 58.6155 77.9564C58.6463 77.9688 58.6757 77.9806 58.6998 77.9903Z" fill="#35383B"/>
<path d="M58.7046 77.9923C58.7029 77.9916 58.7014 77.9912 58.6998 77.9905C58.7014 77.991 58.7029 77.9916 58.7046 77.9923Z" fill="#35383B"/>
<path d="M58.4076 77.8727C58.3997 77.8696 58.4004 77.8699 58.4076 77.8727V77.8727Z" fill="#35383B"/>
<path d="M58.5069 77.9127C58.4747 77.8999 58.4512 77.8903 58.4345 77.8836C58.4532 77.8912 58.4786 77.9014 58.5069 77.9127Z" fill="#35383B"/>
<path d="M58.7349 78.0045C58.9351 78.0851 59.1416 78.1233 59.3447 78.1233C59.9954 78.1233 60.6113 77.7318 60.868 77.0882L62.1435 73.8927H68.1026L69.378 77.0882C69.6349 77.7318 70.2506 78.1233 70.9013 78.1233C71.1044 78.1233 71.3111 78.0852 71.5111 78.0045C72.3521 77.666 72.7608 76.707 72.4236 75.8624L66.6457 61.3865C66.3978 60.7613 65.7704 60.345 65.1018 60.3529C64.4479 60.3605 63.843 60.7765 63.6 61.3865L57.8221 75.8624C57.4852 76.707 57.8938 77.666 58.7349 78.0045ZM65.1232 66.4276L66.7876 70.5977H63.4586L65.1232 66.4276Z" fill="#35383B"/>
<path d="M58.4345 77.8836C58.4324 77.8828 58.4306 77.8819 58.4284 77.8811C58.4304 77.8819 58.4322 77.8828 58.4345 77.8836Z" fill="#35383B"/>
<path d="M58.4284 77.8811C58.4189 77.8773 58.4117 77.8744 58.4074 77.8727C58.412 77.8745 58.4194 77.8775 58.4284 77.8811Z" fill="#35383B"/>
<path d="M76.2642 77.5464C76.5752 77.8193 76.9598 77.9533 77.3429 77.9533C77.8 77.9533 78.2547 77.7625 78.5789 77.3897L83.5591 71.6659L88.5392 77.3897C88.8635 77.7627 89.3181 77.9533 89.7752 77.9533C90.1583 77.9533 90.543 77.8193 90.8539 77.5464C91.5363 76.9477 91.6062 75.907 91.01 75.222L85.7373 69.1622L91.01 63.1023C91.6062 62.4173 91.5363 61.3765 90.8539 60.778C90.1719 60.1791 89.1352 60.2495 88.5392 60.9346L83.5591 66.6584L78.5789 60.9346C77.9827 60.2493 76.9462 60.1791 76.2642 60.778C75.5818 61.3766 75.512 62.4173 76.1082 63.1023L81.3808 69.1622L76.1082 75.222C75.512 75.9068 75.5817 76.9477 76.2642 77.5464Z" fill="#35383B"/>
<path d="M96.6642 78.2541C97.5702 78.2541 98.3048 77.5164 98.3048 76.6067V62.4315C98.3048 61.5218 97.5702 60.7841 96.6642 60.7841C95.7583 60.7841 95.0236 61.5218 95.0236 62.4315V76.6067C95.0236 77.5164 95.7583 78.2541 96.6642 78.2541Z" fill="#35383B"/>
<path d="M49.3356 63.7779H51.2453V76.6065C51.2453 77.5162 51.9798 78.2539 52.8859 78.2539C53.792 78.2539 54.5265 77.5162 54.5265 76.6065V63.7779H56.4362C57.3423 63.7779 58.0769 63.0402 58.0769 62.1305C58.0769 61.2208 57.3423 60.4831 56.4362 60.4831H49.3356C48.4295 60.4831 47.695 61.2208 47.695 62.1305C47.695 63.0402 48.4295 63.7779 49.3356 63.7779Z" fill="#35383B"/>
</svg>
