<svg width="145" height="145" viewBox="0 0 145 145" fill="none" xmlns="http://www.w3.org/2000/svg">
<circle cx="72.5" cy="72.5" r="71.5" stroke="#ff9900" stroke-width="2"/>
<path d="M65.3955 74.8389C65.3955 80.1286 64.4922 84.0592 62.6855 86.6309C60.8789 89.2025 58.055 90.4883 54.2139 90.4883C50.4215 90.4883 47.6139 89.235 45.791 86.7285C43.9681 84.2057 43.0241 80.446 42.959 75.4492V69.4189C42.959 64.1943 43.8623 60.3125 45.6689 57.7734C47.4756 55.2344 50.3076 53.9648 54.165 53.9648C57.9899 53.9648 60.8057 55.1937 62.6123 57.6514C64.4189 60.0928 65.3467 63.8688 65.3955 68.9795V74.8389ZM60.8789 68.6621C60.8789 64.8372 60.3418 62.054 59.2676 60.3125C58.1934 58.5547 56.4925 57.6758 54.165 57.6758C51.8538 57.6758 50.1693 58.5465 49.1113 60.2881C48.0534 62.0296 47.5081 64.707 47.4756 68.3203V75.5469C47.4756 79.388 48.029 82.2282 49.1357 84.0674C50.2588 85.8903 51.9515 86.8018 54.2139 86.8018C56.4437 86.8018 58.0957 85.9391 59.1699 84.2139C60.2604 82.4886 60.8301 79.7705 60.8789 76.0596V68.6621ZM70.791 61.2891C70.791 59.1569 71.4665 57.3991 72.8174 56.0156C74.1846 54.6322 75.9342 53.9404 78.0664 53.9404C80.2311 53.9404 81.9808 54.6403 83.3154 56.04C84.6663 57.4235 85.3418 59.222 85.3418 61.4355V63.1689C85.3418 65.3174 84.6582 67.0752 83.291 68.4424C81.9401 69.7933 80.2148 70.4688 78.1152 70.4688C75.9993 70.4688 74.2497 69.7933 72.8662 68.4424C71.4827 67.0752 70.791 65.2604 70.791 62.998V61.2891ZM74.1602 63.1689C74.1602 64.4385 74.5182 65.4883 75.2344 66.3184C75.9505 67.1322 76.9108 67.5391 78.1152 67.5391C79.2708 67.5391 80.1986 67.1403 80.8984 66.3428C81.6146 65.5452 81.9727 64.4548 81.9727 63.0713V61.2891C81.9727 60.0195 81.6227 58.9697 80.9229 58.1396C80.223 57.3096 79.2708 56.8945 78.0664 56.8945C76.862 56.8945 75.9098 57.3096 75.21 58.1396C74.5101 58.9697 74.1602 60.0521 74.1602 61.3867V63.1689ZM88.1006 81.2842C88.1006 79.152 88.776 77.4023 90.127 76.0352C91.4941 74.6517 93.2438 73.96 95.376 73.96C97.5081 73.96 99.2578 74.6436 100.625 76.0107C101.992 77.3779 102.676 79.1927 102.676 81.4551V83.1885C102.676 85.3206 101.992 87.0785 100.625 88.4619C99.2741 89.8291 97.5407 90.5127 95.4248 90.5127C93.3089 90.5127 91.5592 89.8372 90.1758 88.4863C88.7923 87.1191 88.1006 85.3044 88.1006 83.042V81.2842ZM91.4697 83.1885C91.4697 84.4743 91.8278 85.5322 92.5439 86.3623C93.2601 87.1761 94.2204 87.583 95.4248 87.583C96.5967 87.583 97.5326 87.1842 98.2324 86.3867C98.9323 85.5729 99.2822 84.4743 99.2822 83.0908V81.2842C99.2822 79.9984 98.9242 78.9486 98.208 78.1348C97.5081 77.321 96.5641 76.9141 95.376 76.9141C94.2204 76.9141 93.2764 77.321 92.5439 78.1348C91.8278 78.9323 91.4697 80.0146 91.4697 81.3818V83.1885ZM79.1406 87.3145L76.5771 85.7031L93.9355 57.9199L96.499 59.5312L79.1406 87.3145Z" fill="#35383B"/>
</svg>
